<?xml version="1.0" encoding="UTF-8" standalone="no"?>
<!-- Created with Inkscape (http://www.inkscape.org/) -->

<svg
   xmlns:dc="http://purl.org/dc/elements/1.1/"
   xmlns:cc="http://creativecommons.org/ns#"
   xmlns:rdf="http://www.w3.org/1999/02/22-rdf-syntax-ns#"
   xmlns:svg="http://www.w3.org/2000/svg"
   xmlns="http://www.w3.org/2000/svg"
   xmlns:sodipodi="http://sodipodi.sourceforge.net/DTD/sodipodi-0.dtd"
   xmlns:inkscape="http://www.inkscape.org/namespaces/inkscape"
   width="448"
   height="392"
   viewBox="0 0 118.53333 103.71667"
   version="1.1"
   id="svg8087"
   sodipodi:docname="bars.svg"
   inkscape:version="0.92.4 (5da689c313, 2019-01-14)">
  <defs
     id="defs8081" />
  <sodipodi:namedview
     id="base"
     pagecolor="#ffffff"
     bordercolor="#666666"
     borderopacity="1.0"
     inkscape:pageopacity="0.0"
     inkscape:pageshadow="2"
     inkscape:zoom="0.35"
     inkscape:cx="-20.285721"
     inkscape:cy="253.14288"
     inkscape:document-units="mm"
     inkscape:current-layer="layer1"
     showgrid="false"
     fit-margin-top="0"
     fit-margin-left="0"
     fit-margin-right="0"
     fit-margin-bottom="0"
     units="px"
     inkscape:window-width="1920"
     inkscape:window-height="1017"
     inkscape:window-x="-8"
     inkscape:window-y="-8"
     inkscape:window-maximized="1"
     inkscape:pagecheckerboard="true" />
  <metadata
     id="metadata8084">
    <rdf:RDF>
      <cc:Work
         rdf:about="">
        <dc:format>image/svg+xml</dc:format>
        <dc:type
           rdf:resource="http://purl.org/dc/dcmitype/StillImage" />
        <dc:title></dc:title>
      </cc:Work>
    </rdf:RDF>
  </metadata>
  <g
     inkscape:label="Layer 1"
     inkscape:groupmode="layer"
     id="layer1"
     transform="translate(11.641665,-112.09405)">
    <path
       style="display:inline;stroke-width:0.26458332;fill:#ffffff;fill-opacity:1"
       d="M -7.4083317,131.14405 H 102.65833 c 2.33812,0 4.23333,-1.89521 4.23333,-4.23334 v -10.58333 c 1e-5,-2.33812 -1.89521,-4.23333 -4.23333,-4.23333 H -7.4083317 c -2.3381229,0 -4.2333333,1.89521 -4.2333333,4.23333 v 10.58333 c 0,2.33813 1.8952104,4.23334 4.2333333,4.23334 z m 0,42.33333 H 102.65833 c 2.33812,0 4.23333,-1.89521 4.23333,-4.23333 v -10.58334 c 0,-2.33812 -1.89521,-4.23333 -4.23333,-4.23333 H -7.4083317 c -2.3381229,0 -4.2333333,1.89521 -4.2333333,4.23333 v 10.58334 c 0,2.33812 1.8952104,4.23333 4.2333333,4.23333 z m 0,42.33334 H 102.65833 c 2.33812,0 4.23333,-1.89521 4.23333,-4.23334 v -10.58333 c 0,-2.33812 -1.89521,-4.23333 -4.23333,-4.23333 H -7.4083317 c -2.3381229,0 -4.2333333,1.89521 -4.2333333,4.23333 v 10.58333 c 0,2.33813 1.8952104,4.23334 4.2333333,4.23334 z"
       id="path182-7"
       inkscape:connector-curvature="0"
       inkscape:label="path182" />
  </g>
</svg>
