<?xml version="1.0" encoding="UTF-8" standalone="no"?>
<!-- Created with Inkscape (http://www.inkscape.org/) -->

<svg
   xmlns:dc="http://purl.org/dc/elements/1.1/"
   xmlns:cc="http://creativecommons.org/ns#"
   xmlns:rdf="http://www.w3.org/1999/02/22-rdf-syntax-ns#"
   xmlns:svg="http://www.w3.org/2000/svg"
   xmlns="http://www.w3.org/2000/svg"
   xmlns:sodipodi="http://sodipodi.sourceforge.net/DTD/sodipodi-0.dtd"
   xmlns:inkscape="http://www.inkscape.org/namespaces/inkscape"
   width="51.196281"
   height="51.205002"
   viewBox="0 0 13.545683 13.54799"
   version="1.1"
   id="svg7530"
   inkscape:version="0.92.4 (5da689c313, 2019-01-14)"
   sodipodi:docname="search.svg">
  <defs
     id="defs7524" />
  <sodipodi:namedview
     id="base"
     pagecolor="#ffffff"
     bordercolor="#666666"
     borderopacity="1.0"
     inkscape:pageopacity="0.0"
     inkscape:pageshadow="2"
     inkscape:zoom="6.56"
     inkscape:cx="26.288709"
     inkscape:cy="5.442485"
     inkscape:document-units="mm"
     inkscape:current-layer="layer1"
     showgrid="false"
     inkscape:window-width="1920"
     inkscape:window-height="1017"
     inkscape:window-x="-8"
     inkscape:window-y="-8"
     inkscape:window-maximized="1"
     fit-margin-top="0"
     fit-margin-left="0"
     fit-margin-right="0"
     fit-margin-bottom="0"
     inkscape:pagecheckerboard="true"
     units="px"
     scale-x="1" />
  <metadata
     id="metadata7527">
    <rdf:RDF>
      <cc:Work
         rdf:about="">
        <dc:format>image/svg+xml</dc:format>
        <dc:type
           rdf:resource="http://purl.org/dc/dcmitype/StillImage" />
        <dc:title></dc:title>
      </cc:Work>
    </rdf:RDF>
  </metadata>
  <g
     inkscape:label="Layer 1"
     inkscape:groupmode="layer"
     id="layer1"
     transform="translate(-61.036092,-61.172434)">
    <path
       d="M 74.39755,72.885538 71.759654,70.247642 C 71.640592,70.12858 71.479196,70.062434 71.309863,70.062434 h -0.431271 c 0.73025,-0.933979 1.164167,-2.108729 1.164167,-3.386667 0,-3.040062 -2.463272,-5.503333 -5.503334,-5.503333 -3.040063,0 -5.503333,2.463271 -5.503333,5.503333 0,3.040063 2.46327,5.503334 5.503333,5.503334 1.277937,0 2.452687,-0.433917 3.386667,-1.164167 v 0.431271 c 0,0.169333 0.06615,0.330729 0.185208,0.449791 l 2.637896,2.637896 c 0.248708,0.248709 0.650875,0.248709 0.896938,0 l 0.74877,-0.748771 c 0.248709,-0.248708 0.248709,-0.650875 0.0027,-0.899583 z m -7.858125,-2.823104 c -1.870604,0 -3.386667,-1.513417 -3.386667,-3.386667 0,-1.870604 1.513417,-3.386666 3.386667,-3.386666 1.870604,0 3.386667,1.513416 3.386667,3.386666 0,1.870604 -1.513417,3.386667 -3.386667,3.386667 z"
       id="path2192"
       inkscape:connector-curvature="0"
       style="display:inline;fill:#ffffff;stroke-width:0.02645833;fill-opacity:1" />
  </g>
</svg>
