<?xml version="1.0" encoding="UTF-8" standalone="no"?>
<!-- Created with Inkscape (http://www.inkscape.org/) -->

<svg
   xmlns:dc="http://purl.org/dc/elements/1.1/"
   xmlns:cc="http://creativecommons.org/ns#"
   xmlns:rdf="http://www.w3.org/1999/02/22-rdf-syntax-ns#"
   xmlns:svg="http://www.w3.org/2000/svg"
   xmlns="http://www.w3.org/2000/svg"
   xmlns:sodipodi="http://sodipodi.sourceforge.net/DTD/sodipodi-0.dtd"
   xmlns:inkscape="http://www.inkscape.org/namespaces/inkscape"
   width="180"
   height="180"
   viewBox="0 0 47.624999 47.625001"
   version="1.1"
   id="svg5337"
   inkscape:version="0.92.4 (5da689c313, 2019-01-14)"
   sodipodi:docname="safari-pinned-tab.svg"
   inkscape:export-filename="C:\Users\Gebruiker\Dropbox\Documents\Sjaarscher\favicon-16x16.png"
   inkscape:export-xdpi="8.5333338"
   inkscape:export-ydpi="8.5333338">
  <defs
     id="defs5331" />
  <sodipodi:namedview
     id="base"
     pagecolor="#ffffff"
     bordercolor="#666666"
     borderopacity="1.0"
     inkscape:pageopacity="0.0"
     inkscape:pageshadow="2"
     inkscape:zoom="1.52"
     inkscape:cx="22.491525"
     inkscape:cy="95.540729"
     inkscape:document-units="mm"
     inkscape:current-layer="layer1"
     showgrid="false"
     inkscape:window-width="958"
     inkscape:window-height="1008"
     inkscape:window-x="-7"
     inkscape:window-y="0"
     inkscape:window-maximized="0"
     units="px" />
  <metadata
     id="metadata5334">
    <rdf:RDF>
      <cc:Work
         rdf:about="">
        <dc:format>image/svg+xml</dc:format>
        <dc:type
           rdf:resource="http://purl.org/dc/dcmitype/StillImage" />
        <dc:title />
      </cc:Work>
    </rdf:RDF>
  </metadata>
  <g
     inkscape:label="Layer 1"
     inkscape:groupmode="layer"
     id="layer1"
     transform="translate(0,-249.37498)">
    <path
       style="fill:#970931;fill-opacity:1;stroke:#970931;stroke-width:0.65452516;stroke-linecap:butt;stroke-linejoin:miter;stroke-miterlimit:4;stroke-dasharray:none;stroke-opacity:1"
       d="m 11.632029,278.04247 -3.6846047,4.05307 c 0,0 1.0132664,5.5269 6.4480587,8.29036 5.434792,2.76345 14.55419,3.50037 20.265334,-0.36846 5.711131,-3.86884 7.553436,-15.199 0.276341,-19.43629 -7.277096,-4.2373 -11.887295,-2.59786 -17.0413,-4.88211 -3.852062,-1.70722 -3.131915,-7.27709 0.644805,-8.65882 2.71639,-0.9938 5.773224,-1.3056 10.132663,0.0921 4.202117,1.34727 4.513644,5.43479 4.513644,5.43479 l 0.921153,1.1975 1.47384,-1.10538 c 0,0 0.12292,-4.84079 -5.066332,-7.36921 -4.026042,-1.96166 -8.954529,-2.24485 -13.633039,-0.27635 -6.8958617,2.90147 -7.5848653,12.65565 -0.460576,16.3965 3.22403,1.8423 13.356692,3.59249 14.646302,7.46132 1.289618,3.86884 -2.116917,6.56324 -7.277092,6.44806 -4.789679,-0.10691 -6.448059,-2.21076 -7.645556,-4.42152 z"
       id="path5893-7"
       inkscape:connector-curvature="0"
       sodipodi:nodetypes="ccsssssscccsscsscc" />
  </g>
</svg>
